<?xml version="1.0" encoding="UTF-8" standalone="no"?>
<!DOCTYPE svg PUBLIC "-//W3C//DTD SVG 1.1//EN" "http://www.w3.org/Graphics/SVG/1.1/DTD/svg11.dtd">
<svg width="100%" height="100%" viewBox="0 0 150 150" version="1.1" xmlns="http://www.w3.org/2000/svg" xmlns:xlink="http://www.w3.org/1999/xlink" xml:space="preserve" xmlns:serif="http://www.serif.com/" style="fill-rule:evenodd;clip-rule:evenodd;">
    <g id="path4538" transform="matrix(0.459955,0,0,0.459955,-76.785,-116.639)">
        <path d="M485.714,416.648L485.714,416.648C485.714,502.07 415.422,572.362 330,572.362C244.578,572.362 174.286,502.07 174.286,416.648L174.286,416.648C174.286,331.226 244.578,260.934 330,260.934C415.422,260.934 485.714,331.226 485.714,416.648Z" style="fill:white;fill-rule:nonzero;"/>
    </g>
    <g id="Calque-1" serif:id="Calque 1">
    </g>
    <g id="g15198" transform="matrix(0.218245,0,0,0.218245,-6.15543,-34.4921)">
        <g id="g15187" transform="matrix(1,0,0,1,981.429,9.99975)">
            <g id="path15183" transform="matrix(1.44743,0,0,1.44743,622.811,564.783)">
                <path d="M-740.68,141.328L-845.697,-39.246L-761.337,151.853L-846.904,-38.708L-782.982,160.162L-848.161,-38.3L-805.377,166.162L-849.454,-38.025L-828.276,169.789L-850.768,-37.887L-851.429,171.003L-852.089,-37.887L-874.581,169.789L-853.404,-38.025L-897.481,166.162L-854.696,-38.3L-919.875,160.162L-855.953,-38.708L-941.52,151.853L-857.16,-39.246L-962.177,141.328L-858.305,-39.906L-981.622,128.7L-859.374,-40.683L-999.639,114.11L-860.356,-41.567L-1016.03,97.716L-861.24,-42.55L-1030.62,79.698L-862.017,-43.619L-1043.25,60.254L-862.678,-44.763L-1053.78,39.596L-863.215,-45.97L-1062.09,17.952L-863.624,-47.227L-1068.09,-4.443L-863.899,-48.52L-1071.71,-27.342L-864.037,-49.834L-1072.93,-50.495L-864.037,-51.156L-1071.71,-73.648L-863.899,-52.47L-1068.09,-96.547L-863.624,-53.763L-1062.09,-118.942L-863.215,-55.019L-1053.78,-140.586L-862.678,-56.227L-1043.25,-161.244L-862.017,-57.371L-1030.62,-180.688L-861.24,-58.44L-1016.03,-198.706L-860.356,-59.422L-999.639,-215.1L-859.374,-60.307L-981.622,-229.69L-858.305,-61.083L-962.177,-242.318L-857.16,-61.744L-941.52,-252.843L-855.953,-62.282L-919.875,-261.152L-854.696,-62.69L-897.481,-267.152L-853.404,-62.965L-874.581,-270.779L-852.089,-63.103L-851.429,-271.993L-850.768,-63.103L-828.276,-270.779L-849.454,-62.965L-805.377,-267.152L-848.161,-62.69L-782.982,-261.152L-846.904,-62.282L-761.337,-252.843L-845.697,-61.744L-740.68,-242.318L-844.552,-61.083L-721.236,-229.69L-843.483,-60.307L-703.218,-215.1L-842.501,-59.422L-686.824,-198.706L-841.617,-58.44L-672.233,-180.688L-840.84,-57.371L-659.606,-161.244L-840.179,-56.227L-649.08,-140.586L-839.642,-55.019L-640.772,-118.942L-839.233,-53.763L-634.771,-96.547L-838.959,-52.47L-631.144,-73.648L-838.821,-51.156L-629.931,-50.495L-838.821,-49.834L-631.144,-27.342L-838.959,-48.52L-634.771,-4.443L-839.233,-47.227L-640.772,17.952L-839.642,-45.97L-649.08,39.596L-840.179,-44.763L-659.606,60.254L-840.84,-43.619L-672.233,79.698L-841.617,-42.55L-686.824,97.716L-842.501,-41.567L-703.218,114.11L-843.483,-40.683L-721.236,128.7L-844.552,-39.906L-740.68,141.328Z" style="fill:white;fill-rule:nonzero;stroke:rgb(255,0,0);stroke-width:0.63px;"/>
            </g>
            <g id="path15185" transform="matrix(1.76676,0,0,1.76676,215.756,-395.859)">
                <path d="M-297.143,502.362L-297.143,502.362C-297.143,595.621 -373.884,672.362 -467.143,672.362C-560.402,672.362 -637.143,595.621 -637.143,502.362L-637.143,502.362C-637.143,409.103 -560.402,332.362 -467.143,332.362C-373.884,332.362 -297.143,409.103 -297.143,502.362Z" style="fill:white;fill-rule:nonzero;"/>
            </g>
        </g>
        <g id="path10736" transform="matrix(1.44743,0,0,1.44743,1604.24,574.782)">
            <path d="M-740.68,141.328L-848.175,-38.351L-851.429,171.003L-854.683,-38.351L-962.177,141.328L-860.319,-41.605L-1043.25,60.254L-863.573,-47.241L-1072.93,-50.495L-863.573,-53.749L-1043.25,-161.244L-860.319,-59.385L-962.177,-242.318L-854.683,-62.639L-851.429,-271.993L-848.175,-62.639L-740.68,-242.318L-842.538,-59.385L-659.606,-161.244L-839.284,-53.749L-629.931,-50.495L-839.284,-47.241L-659.606,60.254L-842.538,-41.605L-740.68,141.328Z" style="fill:rgb(255,0,0);fill-rule:nonzero;stroke:rgb(255,0,0);stroke-width:1.58px;"/>
        </g>
        <g id="path10738" transform="matrix(1.66765,0,0,1.66765,1150.89,-336.07)">
            <path d="M-297.143,502.362L-297.143,502.362C-297.143,595.621 -373.884,672.362 -467.143,672.362C-560.402,672.362 -637.143,595.621 -637.143,502.362L-637.143,502.362C-637.143,409.103 -560.402,332.362 -467.143,332.362C-373.884,332.362 -297.143,409.103 -297.143,502.362Z" style="fill:white;fill-rule:nonzero;"/>
        </g>
    </g>
</svg>
